<svg width="23" height="23" viewBox="0 0 23 23" fill="none" xmlns="http://www.w3.org/2000/svg">
<g id="&#240;&#159;&#166;&#134; icon &#34;Headset&#34;">
<path id="Vector" d="M8.69359 9.83399C8.69359 9.07148 8.07521 8.45309 7.31269 8.45309H6.62225C5.09678 8.45309 3.86045 9.68943 3.86045 11.2149V13.2862C3.86045 14.8117 5.09678 16.048 6.62225 16.048H7.31269C8.07521 16.048 8.69359 15.4297 8.69359 14.6671V9.83399ZM16.2885 16.048C17.814 16.048 19.0503 14.8117 19.0503 13.2862V11.2149C19.0503 9.68943 17.814 8.45309 16.2885 8.45309H15.5981C14.8356 8.45309 14.2172 9.07148 14.2172 9.83399V14.6671C14.2172 15.4297 14.8356 16.048 15.5981 16.048H16.2885ZM11.4554 0.858154C5.29227 0.858154 0.605844 5.98603 0.408203 11.9053V12.5958C0.408203 12.9773 0.717179 13.2862 1.09865 13.2862H1.7891C2.17057 13.2862 2.47955 12.9773 2.47955 12.5958V11.9053C2.47955 6.95611 6.50616 2.9295 11.4554 2.9295C16.4046 2.9295 20.4312 6.95611 20.4312 11.9053H20.4261C20.4295 12.0102 20.4312 19.0567 20.4312 19.0567C20.4312 20.0643 19.6143 20.8812 18.6067 20.8812H14.2172C14.2172 19.7372 13.2898 18.8098 12.1458 18.8098H10.7649C9.62095 18.8098 8.69359 19.7372 8.69359 20.8812C8.69359 22.0252 9.62095 22.9525 10.7649 22.9525H18.6067C20.7583 22.9525 22.5026 21.2083 22.5026 19.0567V11.9053C22.3049 5.98603 17.6185 0.858154 11.4554 0.858154Z" fill="#464646"/>
</g>
</svg>
