<svg width="20" height="16" viewBox="0 0 20 16" fill="none" xmlns="http://www.w3.org/2000/svg">
<path id="Vector" d="M0.705437 2.84694H19.0468C19.4364 2.84694 19.7522 2.56371 19.7522 2.21429V0.632653C19.7522 0.283231 19.4364 0 19.0468 0H0.705437C0.315815 0 0 0.283231 0 0.632653V2.21429C0 2.56371 0.315815 2.84694 0.705437 2.84694ZM0.705437 9.17347H19.0468C19.4364 9.17347 19.7522 8.89024 19.7522 8.54082V6.95918C19.7522 6.60976 19.4364 6.32653 19.0468 6.32653H0.705437C0.315815 6.32653 0 6.60976 0 6.95918V8.54082C0 8.89024 0.315815 9.17347 0.705437 9.17347ZM0.705437 15.5H19.0468C19.4364 15.5 19.7522 15.2168 19.7522 14.8673V13.2857C19.7522 12.9363 19.4364 12.6531 19.0468 12.6531H0.705437C0.315815 12.6531 0 12.9363 0 13.2857V14.8673C0 15.2168 0.315815 15.5 0.705437 15.5Z" fill="#AEAEB0"/>
</svg>
