<svg width="24" height="24" viewBox="0 0 24 24" fill="none" xmlns="http://www.w3.org/2000/svg">
<g id="&#240;&#159;&#166;&#134; icon &#34;Clock&#34;">
<path id="Vector" d="M11.9004 0C5.3264 0 0 5.3264 0 11.9004C0 18.4744 5.3264 23.8008 11.9004 23.8008C18.4744 23.8008 23.8008 18.4744 23.8008 11.9004C23.8008 5.3264 18.4744 0 11.9004 0ZM11.9004 21.4975C6.59802 21.4975 2.30331 17.2028 2.30331 11.9004C2.30331 6.59802 6.59802 2.30331 11.9004 2.30331C17.2028 2.30331 21.4975 6.59802 21.4975 11.9004C21.4975 17.2028 17.2028 21.4975 11.9004 21.4975ZM14.8659 16.4878L10.792 13.5271C10.6432 13.4168 10.5568 13.244 10.5568 13.0617V5.18244C10.5568 4.86574 10.8159 4.60662 11.1327 4.60662H12.6682C12.9849 4.60662 13.244 4.86574 13.244 5.18244V11.982L16.4495 14.3141C16.7086 14.5012 16.7614 14.8611 16.5742 15.1203L15.6721 16.3631C15.4849 16.6174 15.1251 16.675 14.8659 16.4878Z" fill="#E5B233"/>
</g>
</svg>
