<svg width="24" height="21" viewBox="0 0 24 21" fill="none" xmlns="http://www.w3.org/2000/svg">
<g id="&#240;&#159;&#166;&#134; icon &#34;Hand Holding US Dollar&#34;">
<path id="Vector" d="M11.3172 6.39308L13.3989 6.94159C13.4696 6.95812 13.5328 6.99754 13.5788 7.05372C13.6248 7.10991 13.6509 7.17971 13.6532 7.25228C13.6532 7.42872 13.4963 7.57448 13.3034 7.57448H11.9378C11.7907 7.57405 11.645 7.5454 11.5086 7.49009C11.3076 7.4057 11.076 7.42488 10.9218 7.5668L10.193 8.23805C10.1593 8.26756 10.1302 8.30195 10.1067 8.34008C10.0766 8.38944 10.0566 8.44426 10.0478 8.50139C10.039 8.55851 10.0416 8.61682 10.0554 8.67294C10.0692 8.72906 10.094 8.78189 10.1284 8.82838C10.1627 8.87488 10.2059 8.91411 10.2555 8.94382C10.6591 9.18604 11.111 9.33663 11.5792 9.38493V10.0638C11.5792 10.4014 11.8795 10.6776 12.2455 10.6776H12.9117C13.278 10.6776 13.5784 10.4014 13.5784 10.0638V9.38877C14.8415 9.25068 15.797 8.1997 15.6305 6.97227C15.5097 6.09006 14.769 5.38812 13.8446 5.14264L11.7629 4.59413C11.6922 4.5776 11.629 4.53818 11.583 4.482C11.537 4.42581 11.5109 4.35601 11.5086 4.28344C11.5086 4.107 11.6655 3.96124 11.8585 3.96124H13.224C13.3716 3.96147 13.5179 3.99012 13.6547 4.04563C13.8553 4.13001 14.0874 4.11083 14.2416 3.96891L14.9704 3.29766C15.003 3.26879 15.031 3.23517 15.0536 3.19794C15.0839 3.1486 15.1042 3.09374 15.1132 3.03652C15.1222 2.97931 15.1198 2.92087 15.1061 2.86459C15.0924 2.80831 15.0677 2.7553 15.0334 2.70863C14.9991 2.66195 14.9559 2.62254 14.9063 2.59266C14.5026 2.35045 14.0506 2.19987 13.5822 2.15155V1.47187C13.5822 1.13433 13.2823 0.858154 12.916 0.858154H12.2497C11.8834 0.858154 11.5834 1.13433 11.5834 1.47187V2.14695C10.3219 2.28504 9.36447 3.33602 9.53094 4.56345C9.65138 5.44566 10.3944 6.14759 11.3172 6.39308ZM22.6023 13.4431C22.1497 13.0327 21.4439 13.0595 20.9683 13.4431L17.4241 16.2777C16.989 16.6267 16.4475 16.8162 15.8898 16.8147H11.3533C11.1905 16.8147 11.0344 16.75 10.9193 16.6349C10.8042 16.5198 10.7396 16.3637 10.7396 16.201C10.7396 16.0382 10.8042 15.8821 10.9193 15.767C11.0344 15.6519 11.1905 15.5873 11.3533 15.5873H14.3563C14.9661 15.5873 15.5342 15.1692 15.6316 14.567C15.6436 14.4978 15.6496 14.4277 15.6493 14.3575C15.6487 14.0324 15.5191 13.7208 15.289 13.4911C15.0588 13.2614 14.747 13.1324 14.4219 13.1324H8.28472C7.2497 13.1327 6.24622 13.4887 5.44246 14.1408L3.65886 15.5873H1.53388C1.37111 15.5873 1.21501 15.6519 1.09992 15.767C0.984825 15.8821 0.920166 16.0382 0.920166 16.201L0.920166 19.8833C0.920166 20.046 0.984825 20.2021 1.09992 20.3172C1.21501 20.4323 1.37111 20.497 1.53388 20.497H15.2185C15.7761 20.4974 16.3172 20.308 16.7528 19.96L22.5536 15.3188C22.6931 15.2072 22.8066 15.0664 22.8861 14.9064C22.9656 14.7464 23.0092 14.571 23.0139 14.3923C23.0186 14.2137 22.9842 14.0362 22.9132 13.8723C22.8421 13.7083 22.7362 13.5619 22.6026 13.4431H22.6023Z" fill="#464646"/>
</g>
</svg>
