<svg width="23" height="18" viewBox="0 0 23 18" fill="none" xmlns="http://www.w3.org/2000/svg">
<g id="&#240;&#159;&#166;&#134; icon &#34;Envelope&#34;">
<path id="Vector" d="M20.4153 0.747925H2.68935C1.55974 0.747925 0.644043 1.66362 0.644043 2.79323V15.0651C0.644043 16.1947 1.55974 17.1104 2.68935 17.1104H20.4153C21.5449 17.1104 22.4606 16.1947 22.4606 15.0651V2.79323C22.4606 1.66362 21.5449 0.747925 20.4153 0.747925ZM20.4153 2.79323V4.53195C19.4599 5.30997 17.9367 6.51977 14.6805 9.06954C13.9629 9.634 12.5414 10.9901 11.5523 10.9743C10.5634 10.9903 9.14147 9.63379 8.42417 9.06954C5.16843 6.52016 3.64489 5.3101 2.68935 4.53195V2.79323H20.4153ZM2.68935 15.0651V7.15646C3.66572 7.93414 5.05035 9.02544 7.16081 10.678C8.09214 11.4112 9.72315 13.0295 11.5523 13.0197C13.3725 13.0295 14.9829 11.4346 15.9435 10.6784C18.0539 9.02582 19.4389 7.93423 20.4153 7.1565V15.0651H2.68935Z" fill="white"/>
</g>
</svg>
