<svg width="25" height="19" viewBox="0 0 25 19" fill="none" xmlns="http://www.w3.org/2000/svg">
<g id="&#240;&#159;&#166;&#134; icon &#34;Envelope&#34;">
<path id="Vector" d="M22.1186 0.0771484H2.28813C1.02441 0.0771484 0 1.10156 0 2.36527V16.094C0 17.3577 1.02441 18.3822 2.28813 18.3822H22.1186C23.3823 18.3822 24.4067 17.3577 24.4067 16.094V2.36527C24.4067 1.10156 23.3823 0.0771484 22.1186 0.0771484ZM22.1186 2.36527V4.31042C21.0497 5.18081 19.3457 6.53424 15.7029 9.38673C14.9001 10.0182 13.3098 11.5353 12.2033 11.5176C11.097 11.5355 9.50626 10.018 8.7038 9.38673C5.06153 6.53467 3.35711 5.18096 2.28813 4.31042V2.36527H22.1186ZM2.28813 16.094V7.24652C3.38042 8.11653 4.92944 9.33739 7.29045 11.1862C8.33236 12.0063 10.157 13.8169 12.2033 13.8059C14.2396 13.8169 16.0411 12.0326 17.1158 11.1866C19.4768 9.33782 21.0262 8.11662 22.1186 7.24656V16.094H2.28813Z" fill="#E5B233"/>
</g>
</svg>
