<svg width="23" height="19" viewBox="0 0 23 19" fill="none" xmlns="http://www.w3.org/2000/svg">
<g id="&#240;&#159;&#166;&#134; icon &#34;Helping Hands&#34;">
<path id="Vector" d="M16.8958 7.38646H11.6484V9.31972C11.6484 10.6903 10.5333 11.8053 9.16279 11.8053C7.79226 11.8053 6.67718 10.6903 6.67718 9.31972V5.1218L4.43668 6.46817C3.7704 6.86518 3.36303 7.58669 3.36303 8.36V9.9929L0.601241 11.5878C0.0730488 11.8916 -0.10992 12.5683 0.197329 13.0965L2.95912 17.8813C3.26292 18.4095 3.93956 18.589 4.46775 18.2852L8.03736 16.2242H12.7531C13.9718 16.2242 14.9626 15.2334 14.9626 14.0148H15.5149C16.126 14.0148 16.6196 13.5211 16.6196 12.91V10.7006H16.8958C17.355 10.7006 17.7243 10.3312 17.7243 9.87208V8.215C17.7243 7.75585 17.355 7.38646 16.8958 7.38646ZM21.9948 6.09533L19.233 1.31052C18.9292 0.78233 18.2525 0.602814 17.7243 0.906611L14.1547 2.9676H10.6265C10.2123 2.9676 9.80836 3.08497 9.45623 3.30246L8.29974 4.02398C7.97522 4.22421 7.7819 4.57979 7.7819 4.95954V9.31972C7.7819 10.0827 8.39985 10.7006 9.16279 10.7006C9.92574 10.7006 10.5437 10.0827 10.5437 9.31972V6.28175H16.8958C17.9626 6.28175 18.8291 7.14826 18.8291 8.215V9.19889L21.5909 7.60396C22.119 7.29671 22.2986 6.62352 21.9948 6.09533Z" fill="#464646"/>
</g>
</svg>
