<svg width="21" height="27" viewBox="0 0 21 27" fill="none" xmlns="http://www.w3.org/2000/svg">
<g id="&#240;&#159;&#166;&#134; icon &#34;Alternate Map Marker&#34;">
<path id="Vector" d="M9.88675 24.9674C3.23474 15.3239 2 14.3342 2 10.7901C2 5.93545 5.93545 2 10.7901 2C15.6448 2 19.5802 5.93545 19.5802 10.7901C19.5802 14.3342 18.3455 15.3239 11.6935 24.9674C11.257 25.598 10.3232 25.5979 9.88675 24.9674ZM10.7901 14.4527C12.8129 14.4527 14.4527 12.8129 14.4527 10.7901C14.4527 8.76734 12.8129 7.12757 10.7901 7.12757C8.76734 7.12757 7.12757 8.76734 7.12757 10.7901C7.12757 12.8129 8.76734 14.4527 10.7901 14.4527Z" stroke="#E5B233" stroke-width="2.07716"/>
</g>
</svg>
