<svg width="24" height="21" viewBox="0 0 24 21" fill="none" xmlns="http://www.w3.org/2000/svg">
<g id="&#240;&#159;&#166;&#134; icon &#34;Exclamation Triangle&#34;">
<path id="Vector" d="M22.7659 17.4504C23.4739 18.6776 22.5852 20.2117 21.171 20.2117H2.76345C1.34661 20.2117 0.461987 18.6753 1.16862 17.4504L10.3725 1.49229C11.0809 0.264479 12.8551 0.266704 13.5622 1.49229L22.7659 17.4504ZM11.9674 14.1511C10.9929 14.1511 10.2029 14.9411 10.2029 15.9156C10.2029 16.8901 10.9929 17.6801 11.9674 17.6801C12.9419 17.6801 13.7318 16.8901 13.7318 15.9156C13.7318 14.9411 12.9419 14.1511 11.9674 14.1511ZM10.2921 7.80871L10.5767 13.0254C10.59 13.2695 10.7918 13.4606 11.0363 13.4606H12.8984C13.1429 13.4606 13.3447 13.2695 13.358 13.0254L13.6426 7.80871C13.657 7.54503 13.447 7.32332 13.183 7.32332H10.7517C10.4877 7.32332 10.2778 7.54503 10.2921 7.80871Z" fill="#464646"/>
</g>
</svg>
