<svg width="25" height="25" viewBox="0 0 25 25" fill="none" xmlns="http://www.w3.org/2000/svg">
<g id="&#240;&#159;&#166;&#134; icon &#34;What&#39;s App&#34;">
<path id="Vector" d="M20.9085 3.57349C18.6085 1.26801 15.5455 0 12.2904 0C5.57157 0 0.104295 5.46727 0.104295 12.1861C0.104295 14.3324 0.664197 16.4293 1.72911 18.2791L0 24.5917L6.46082 22.8956C8.23933 23.8672 10.2429 24.3777 12.2849 24.3777H12.2904C19.0037 24.3777 24.5917 18.9104 24.5917 12.1916C24.5917 8.93646 23.2085 5.87896 20.9085 3.57349ZM12.2904 22.3247C10.468 22.3247 8.68396 21.8361 7.13051 20.914L6.76273 20.6944L2.93125 21.6989L3.95224 17.9608L3.71072 17.5765C2.69521 15.9627 2.16276 14.1018 2.16276 12.1861C2.16276 6.60354 6.70784 2.05846 12.2959 2.05846C15.0021 2.05846 17.5436 3.11239 19.4538 5.02813C21.3641 6.94387 22.5388 9.48539 22.5333 12.1916C22.5333 17.7796 17.8729 22.3247 12.2904 22.3247ZM17.8455 14.7386C17.5436 14.5849 16.045 13.8493 15.7651 13.7505C15.4851 13.6462 15.282 13.5968 15.0789 13.9042C14.8758 14.2116 14.294 14.8923 14.1128 15.1009C13.9372 15.304 13.756 15.3314 13.4541 15.1777C11.6646 14.283 10.4899 13.5804 9.30973 11.5548C8.99685 11.0169 9.62262 11.0553 10.2045 9.89159C10.3033 9.68849 10.2539 9.51283 10.177 9.35913C10.1002 9.20544 9.49088 7.70688 9.23837 7.09757C8.99136 6.50474 8.73885 6.58707 8.55222 6.5761C8.37656 6.56512 8.17346 6.56512 7.97036 6.56512C7.76726 6.56512 7.4379 6.64197 7.15795 6.94387C6.878 7.25127 6.09304 7.98683 6.09304 9.48539C6.09304 10.9839 7.1854 12.4331 7.33361 12.6362C7.48731 12.8393 9.4799 15.9133 12.5374 17.2362C14.4696 18.0705 15.2271 18.1419 16.1932 17.9992C16.7806 17.9114 17.9937 17.2636 18.2462 16.55C18.4987 15.8364 18.4987 15.2271 18.4219 15.1009C18.3505 14.9636 18.1474 14.8868 17.8455 14.7386Z" fill="#E5B233"/>
</g>
</svg>
