<svg width="23" height="23" viewBox="0 0 23 23" fill="none" xmlns="http://www.w3.org/2000/svg">
<g id="&#240;&#159;&#166;&#134; icon &#34;What&#39;s App&#34;">
<path id="Vector" d="M19.3437 3.97142C17.2878 1.91061 14.5498 0.777161 11.6401 0.777161C5.63435 0.777161 0.74728 5.66423 0.74728 11.67C0.74728 13.5885 1.24776 15.4629 2.19966 17.1165L0.654053 22.7592L6.42923 21.243C8.019 22.1115 9.80995 22.5678 11.6352 22.5678H11.6401C17.641 22.5678 22.636 17.6807 22.636 11.6749C22.636 8.76526 21.3996 6.03223 19.3437 3.97142ZM11.6401 20.7327C10.0111 20.7327 8.41644 20.296 7.02785 19.4717L6.6991 19.2754L3.27423 20.1733L4.18687 16.8319L3.97098 16.4884C3.06324 15.0458 2.58729 13.3825 2.58729 11.67C2.58729 6.67992 6.65003 2.61717 11.6451 2.61717C14.0641 2.61717 16.3359 3.55926 18.0434 5.27169C19.7509 6.98413 20.8009 9.25593 20.796 11.6749C20.796 16.6699 16.6303 20.7327 11.6401 20.7327ZM16.6057 13.9516C16.3359 13.8142 14.9963 13.1568 14.7461 13.0684C14.4958 12.9752 14.3143 12.931 14.1327 13.2058C13.9512 13.4806 13.4311 14.089 13.2692 14.2755C13.1122 14.457 12.9502 14.4816 12.6804 14.3442C11.0808 13.5444 10.0307 12.9163 8.97581 11.1058C8.69613 10.6249 9.25549 10.6592 9.7756 9.61903C9.86392 9.43748 9.81976 9.28046 9.75107 9.14308C9.68237 9.00569 9.13773 7.66616 8.91202 7.12152C8.69122 6.59159 8.46551 6.66519 8.29868 6.65538C8.14167 6.64557 7.96012 6.64557 7.77857 6.64557C7.59703 6.64557 7.30262 6.71426 7.05238 6.98413C6.80214 7.25891 6.10048 7.9164 6.10048 9.25593C6.10048 10.5955 7.07692 11.8908 7.2094 12.0724C7.34679 12.2539 9.12792 15.0017 11.8609 16.1842C13.5881 16.93 14.2652 16.9938 15.1288 16.8662C15.6538 16.7877 16.7382 16.2087 16.9639 15.5708C17.1896 14.933 17.1896 14.3883 17.1209 14.2755C17.0571 14.1528 16.8756 14.0841 16.6057 13.9516Z" fill="white"/>
</g>
</svg>
